<?xml version="1.0" encoding="utf-8"?>
<!-- Generator: Adobe Illustrator 16.0.0, SVG Export Plug-In . SVG Version: 6.00 Build 0)  -->
<!DOCTYPE svg PUBLIC "-//W3C//DTD SVG 1.1//EN" "http://www.w3.org/Graphics/SVG/1.1/DTD/svg11.dtd">
<svg version="1.1" id="Layer_1" xmlns="http://www.w3.org/2000/svg" xmlns:xlink="http://www.w3.org/1999/xlink" x="0px" y="0px"
	 width="167.095px" height="197.766px" viewBox="0 0 167.095 197.766" enable-background="new 0 0 167.095 197.766"
	 xml:space="preserve">
<path fill="#232323" d="M41.163,30.064c-4.893-0.004-8.857,4.002-8.862,8.94c0.005,4.944,3.971,8.952,8.862,8.95
	c4.896,0.002,8.86-4.006,8.864-8.95C50.023,34.067,46.056,30.061,41.163,30.064z M45.103,41.252l-1.697,1.697l-2.243-2.241
	l-2.241,2.241l-1.699-1.697l2.242-2.241l-2.242-2.243l1.699-1.7l2.241,2.243l2.243-2.243l1.697,1.7l-2.241,2.243L45.103,41.252z"/>
<polygon fill="#232323" points="74.47,39.01 79.615,44.158 76.31,47.461 71.162,42.312 66.017,47.459 62.712,44.156 67.857,39.01 
	62.712,33.865 66.017,30.56 71.162,35.705 76.308,30.559 79.615,33.863 "/>
<path fill="#232323" d="M110.462,4.637c-0.248-2.445-2.312-4.354-4.824-4.354c-2.014,0-3.738,1.227-4.475,2.972
	c-0.733-1.745-2.459-2.972-4.474-2.972c-2.512,0-4.577,1.908-4.823,4.354c-0.018,0.163-0.025,0.329-0.025,0.496
	c0,5.895,7.232,8.674,9.322,12.604l0,0c2.09-3.932,9.322-6.711,9.322-12.604C110.486,4.965,110.478,4.799,110.462,4.637z"/>
<polygon fill="#232323" points="125.476,9.011 134.206,17.738 136.849,15.092 130.769,9.011 136.851,2.929 134.206,0.281 
	128.124,6.363 "/>
<path fill="#232323" d="M131.164,60.254c-3.273,0-5.932,2.654-5.932,5.932c0,0.069,0.002,0.143,0.006,0.215
	c0.023,0.623,0.141,1.221,0.34,1.78c1.27,4.159,5.588,9.585,5.588,9.585s4.321-5.426,5.586-9.585
	c0.201-0.562,0.316-1.157,0.338-1.78c0.004-0.072,0.006-0.146,0.006-0.215C137.095,62.908,134.439,60.254,131.164,60.254z
	 M131.164,69.09c-1.604,0-2.902-1.303-2.902-2.904s1.299-2.904,2.902-2.904c1.605,0,2.907,1.303,2.907,2.904
	C134.07,67.79,132.767,69.09,131.164,69.09z"/>
<path fill="#232323" d="M45.656,6.764V4.518c0-2.479-2.012-4.492-4.492-4.492c-2.479,0-4.493,2.012-4.493,4.492v2.246
	c-1.239,0-2.245,1.007-2.245,2.246v6.739c0,1.239,1.005,2.245,2.245,2.245h8.986c1.239,0,2.245-1.006,2.245-2.245V9.01
	C47.902,7.771,46.896,6.764,45.656,6.764z M38.917,4.518c0-1.239,1.005-2.247,2.246-2.247c1.24,0,2.248,1.008,2.248,2.247v2.246
	h-4.494V4.518z"/>
<g>
	<rect id="rect2994-1" x="1.585" y="66.882" fill="#232323" fill-opacity="0.9947" width="19.157" height="4.257"/>
	<rect id="rect2994" x="1.585" y="60.494" fill="#232323" fill-opacity="0.9947" width="19.157" height="4.259"/>
	<rect id="rect2994-7" x="1.585" y="73.27" fill="#232323" fill-opacity="0.9947" width="19.157" height="4.256"/>
</g>
<polygon fill="#232323" points="134.314,36.269 128.014,29.969 125.273,32.708 131.574,39.01 125.275,45.31 128.014,48.051 
	137.054,39.01 "/>
<g id="XMLID_13_">
	<g>
		<g id="XMLID_10_">
			<g>
				<path fill="#232323" d="M47.468,77.41l-4.018-4.02c-1.102,0.723-2.416,1.146-3.834,1.146c-3.873,0-7.003-3.139-7.003-7.012
					c0-3.863,3.13-7.002,7.003-7.002c3.863,0,7,3.139,7,7.002c0,1.354-0.379,2.612-1.039,3.68l4.045,4.045
					c0.215,0.209,0.035,0.728-0.396,1.154l-0.603,0.604C48.197,77.439,47.675,77.617,47.468,77.41z M44.289,67.525
					c0-2.584-2.09-4.676-4.674-4.676s-4.684,2.092-4.684,4.676s2.1,4.685,4.684,4.685C42.197,72.21,44.289,70.111,44.289,67.525z"/>
			</g>
		</g>
	</g>
</g>
<path fill="#232323" d="M63.941,60.65h14.445c1.19,0,2.157,0.965,2.157,2.157v9.351c0,1.189-0.967,2.156-2.157,2.156h-6.314
	c-3.324,1.944-5.537,3.055-5.537,3.055c0.806-1.051,1.293-2.248,1.006-3.055h-3.6c-1.191,0-2.157-0.967-2.157-2.156v-9.351
	C61.784,61.614,62.749,60.65,63.941,60.65z"/>
<path fill="#232323" d="M11.163,30.191c-4.871,0-8.819,3.947-8.819,8.818s3.948,8.818,8.819,8.818c4.872,0,8.821-3.948,8.821-8.818
	C19.984,34.139,16.035,30.191,11.163,30.191z M9.796,43.078L5.738,39.02l1.561-1.56l2.499,2.5l5.302-5.303l1.561,1.56L9.796,43.078z
	"/>
<g>
	<g>
		<polygon fill="#232323" points="111.72,33.965 97.588,47.141 97.489,47.033 94.711,44.053 90.607,39.652 93.646,36.818 
			97.752,41.219 108.843,30.879 		"/>
	</g>
</g>
<g id="XMLID_1_">
	<g>
		<g id="XMLID_2_">
			<g>
				<path d="M9.38,10.504h0.166c-0.045-0.039-0.09-0.074-0.13-0.117c-1.315-1.188-2.32-3.499-2.32-5.367
					c0-2.642,2.162-4.783,4.208-4.783c2.045,0,4.1,2.284,4.1,4.924c0,1.869-1.109,4.107-2.482,5.256
					c0.281,1.078,1.828,1.432,5.018,2.305c3.543,0.973,4.398,3.447,4.389,5.062H0c-0.012-1.615,0.847-4.092,4.39-5.062
					C7.492,11.869,9.036,11.514,9.38,10.504z"/>
				<path fill="#F26964" d="M9.546,10.504H9.38c0.014-0.039,0.023-0.076,0.036-0.117C9.456,10.432,9.501,10.465,9.546,10.504z"/>
			</g>
		</g>
	</g>
</g>
<path fill="#232323" d="M111.792,68.971c0-0.008-0.002-0.017-0.002-0.025c0-0.004,0-0.008,0-0.012
	c-0.001-0.008-0.001-0.016-0.003-0.021c0-0.008-0.002-0.016-0.004-0.021v-0.004c-0.023-0.164-0.104-0.318-0.223-0.438
	c-0.68-0.804-1.483-1.521-2.305-2.174c-1.769-1.406-3.787-2.586-6.02-3.061c-1.29-0.273-2.586-0.287-3.881-0.054
	c-1.178,0.212-2.314,0.652-3.379,1.195c-1.666,0.851-3.185,2.022-4.51,3.337c-0.246,0.242-0.488,0.49-0.71,0.757
	c-0.298,0.353-0.298,0.767,0,1.118c0.677,0.805,1.484,1.52,2.304,2.174c1.768,1.404,3.789,2.586,6.02,3.06
	c1.29,0.272,2.587,0.284,3.881,0.054c1.182-0.212,2.316-0.649,3.378-1.191c1.667-0.854,3.187-2.022,4.513-3.338
	c0.242-0.243,0.487-0.49,0.713-0.756c0.117-0.12,0.195-0.271,0.22-0.439h0.002c0-0.008,0.002-0.014,0.004-0.02
	c0-0.007,0.001-0.014,0.001-0.02c0-0.004,0-0.01,0-0.015c0-0.008,0.002-0.019,0.002-0.026c0-0.012,0.002-0.025,0.002-0.039
	C111.793,68.998,111.792,68.986,111.792,68.971z M101.164,73.099c-2.258,0-4.089-1.829-4.089-4.087c0-2.26,1.83-4.09,4.089-4.09
	c2.257,0,4.089,1.83,4.089,4.09C105.254,71.27,103.42,73.099,101.164,73.099z"/>
<g id="Page_1">
	<g id="Gear_Two">
		<path id="Rectangle_5" fill="#232323" d="M65.003,10.812h-2.25c-0.332,0-0.601-0.27-0.601-0.602V7.81
			c0-0.333,0.269-0.602,0.601-0.602H65c0.13-0.449,0.308-0.879,0.529-1.282l-1.587-1.587c-0.235-0.232-0.235-0.614,0-0.851
			l1.699-1.697c0.233-0.234,0.613-0.234,0.85,0l1.583,1.582c0.405-0.224,0.836-0.4,1.287-0.535V0.602C69.362,0.269,69.63,0,69.962,0
			h2.402c0.332,0,0.603,0.271,0.603,0.602V2.83c0.452,0.132,0.887,0.312,1.291,0.534l1.577-1.576c0.234-0.233,0.615-0.233,0.851,0
			l1.699,1.698c0.233,0.234,0.233,0.616,0,0.851l-1.574,1.574c0.223,0.406,0.403,0.841,0.535,1.295h2.229
			c0.332,0,0.6,0.271,0.6,0.603v2.402c0,0.332-0.27,0.602-0.6,0.602h-2.23c-0.131,0.453-0.312,0.885-0.537,1.291l1.578,1.578
			c0.234,0.234,0.234,0.615,0,0.85l-1.699,1.699c-0.233,0.234-0.614,0.234-0.85,0l-1.584-1.582c-0.404,0.223-0.836,0.4-1.287,0.531
			v2.238c0,0.332-0.268,0.602-0.6,0.602h-2.404c-0.332,0-0.601-0.27-0.601-0.602v-2.244c-0.449-0.133-0.879-0.312-1.28-0.533
			l-1.59,1.588c-0.233,0.236-0.614,0.236-0.849,0l-1.699-1.697c-0.235-0.232-0.235-0.613,0-0.85l1.59-1.592
			C65.314,11.688,65.134,11.262,65.003,10.812z M67.57,9.006c0,1.99,1.613,3.604,3.604,3.604s3.605-1.613,3.605-3.604
			c0-1.989-1.613-3.604-3.605-3.604C69.183,5.401,67.57,7.017,67.57,9.006z"/>
	</g>
</g>
<path fill="#FFFFFF" d="M41.163,120.064c-4.893-0.004-8.857,4.002-8.862,8.94c0.005,4.944,3.971,8.952,8.862,8.95
	c4.896,0.002,8.86-4.006,8.864-8.95C50.023,124.067,46.056,120.061,41.163,120.064z M45.103,131.252l-1.697,1.697l-2.243-2.241
	l-2.241,2.241l-1.699-1.697l2.242-2.241l-2.242-2.243l1.699-1.7l2.241,2.243l2.243-2.243l1.697,1.7l-2.241,2.243L45.103,131.252z"/>
<polygon fill="#FFFFFF" points="74.47,129.01 79.615,134.158 76.31,137.461 71.162,132.312 66.017,137.459 62.712,134.156 
	67.857,129.01 62.712,123.865 66.017,120.56 71.162,125.705 76.308,120.559 79.615,123.863 "/>
<path fill="#FFFFFF" d="M110.462,94.637c-0.248-2.445-2.312-4.354-4.824-4.354c-2.014,0-3.738,1.227-4.475,2.972
	c-0.733-1.745-2.459-2.972-4.474-2.972c-2.512,0-4.577,1.908-4.823,4.354c-0.018,0.163-0.025,0.329-0.025,0.496
	c0,5.895,7.232,8.674,9.322,12.604l0,0c2.09-3.932,9.322-6.711,9.322-12.604C110.486,94.965,110.478,94.799,110.462,94.637z"/>
<polygon fill="#FFFFFF" points="125.476,99.011 134.206,107.738 136.849,105.092 130.769,99.011 136.851,92.929 134.206,90.281 
	128.124,96.363 "/>
<path fill="#FFFFFF" d="M131.164,150.254c-3.273,0-5.932,2.654-5.932,5.932c0,0.069,0.002,0.143,0.006,0.215
	c0.023,0.623,0.141,1.221,0.34,1.78c1.27,4.159,5.588,9.585,5.588,9.585s4.321-5.426,5.586-9.585
	c0.201-0.562,0.316-1.157,0.338-1.78c0.004-0.072,0.006-0.146,0.006-0.215C137.095,152.908,134.439,150.254,131.164,150.254z
	 M131.164,159.09c-1.604,0-2.902-1.303-2.902-2.904s1.299-2.904,2.902-2.904c1.605,0,2.907,1.303,2.907,2.904
	C134.07,157.79,132.767,159.09,131.164,159.09z"/>
<path fill="#FFFFFF" d="M45.656,96.764v-2.246c0-2.479-2.012-4.492-4.492-4.492c-2.479,0-4.493,2.012-4.493,4.492v2.246
	c-1.239,0-2.245,1.007-2.245,2.246v6.739c0,1.239,1.005,2.245,2.245,2.245h8.986c1.239,0,2.245-1.006,2.245-2.245V99.01
	C47.902,97.771,46.896,96.764,45.656,96.764z M38.917,94.518c0-1.239,1.005-2.247,2.246-2.247c1.24,0,2.248,1.008,2.248,2.247v2.246
	h-4.494V94.518z"/>
<g>
	<rect id="rect2994-1_1_" x="1.585" y="156.882" fill="#FFFFFF" fill-opacity="0.9947" width="19.157" height="4.257"/>
	<rect id="rect2994_1_" x="1.585" y="150.494" fill="#FFFFFF" fill-opacity="0.9947" width="19.157" height="4.259"/>
	<rect id="rect2994-7_1_" x="1.585" y="163.27" fill="#FFFFFF" fill-opacity="0.9947" width="19.157" height="4.256"/>
</g>
<polygon fill="#FFFFFF" points="134.314,126.269 128.014,119.969 125.273,122.708 131.574,129.01 125.275,135.31 128.014,138.051 
	137.054,129.01 "/>
<g id="XMLID_5_">
	<g>
		<g id="XMLID_6_">
			<g>
				<path fill="#FFFFFF" d="M47.468,167.41l-4.018-4.02c-1.102,0.723-2.416,1.146-3.834,1.146c-3.873,0-7.003-3.139-7.003-7.012
					c0-3.863,3.13-7.002,7.003-7.002c3.863,0,7,3.139,7,7.002c0,1.354-0.379,2.612-1.039,3.68l4.045,4.045
					c0.215,0.209,0.035,0.728-0.396,1.154l-0.603,0.604C48.197,167.439,47.675,167.617,47.468,167.41z M44.289,157.525
					c0-2.584-2.09-4.676-4.674-4.676s-4.684,2.092-4.684,4.676s2.1,4.685,4.684,4.685C42.197,162.21,44.289,160.111,44.289,157.525z
					"/>
			</g>
		</g>
	</g>
</g>
<path fill="#FFFFFF" d="M63.941,150.65h14.445c1.19,0,2.157,0.965,2.157,2.157v9.351c0,1.189-0.967,2.156-2.157,2.156h-6.314
	c-3.324,1.944-5.537,3.055-5.537,3.055c0.806-1.051,1.293-2.248,1.006-3.055h-3.6c-1.191,0-2.157-0.967-2.157-2.156v-9.351
	C61.784,151.614,62.749,150.65,63.941,150.65z"/>
<path fill="#FFFFFF" d="M11.163,120.191c-4.871,0-8.819,3.947-8.819,8.818s3.948,8.818,8.819,8.818c4.872,0,8.821-3.948,8.821-8.818
	C19.984,124.139,16.035,120.191,11.163,120.191z M9.796,133.078l-4.059-4.059l1.561-1.56l2.499,2.5l5.302-5.303l1.561,1.56
	L9.796,133.078z"/>
<g>
	<g>
		<polygon fill="#FFFFFF" points="111.72,123.965 97.588,137.141 97.489,137.033 94.711,134.053 90.607,129.652 93.646,126.818 
			97.752,131.219 108.843,120.879 		"/>
	</g>
</g>
<g id="XMLID_3_">
	<g>
		<g id="XMLID_4_">
			<g>
				<path fill="#FFFFFF" d="M9.38,100.504h0.166c-0.045-0.039-0.09-0.074-0.13-0.117c-1.315-1.188-2.32-3.499-2.32-5.367
					c0-2.642,2.162-4.783,4.208-4.783c2.045,0,4.1,2.284,4.1,4.924c0,1.869-1.109,4.107-2.482,5.256
					c0.281,1.078,1.828,1.432,5.018,2.305c3.543,0.973,4.398,3.447,4.389,5.062H0c-0.012-1.615,0.847-4.092,4.39-5.062
					C7.492,101.869,9.036,101.514,9.38,100.504z"/>
				<path fill="#FFFFFF" d="M9.546,100.504H9.38c0.014-0.039,0.023-0.076,0.036-0.117C9.456,100.432,9.501,100.465,9.546,100.504z"
					/>
			</g>
		</g>
	</g>
</g>
<path fill="#FFFFFF" d="M111.792,158.971c0-0.008-0.002-0.017-0.002-0.025c0-0.004,0-0.008,0-0.012
	c-0.001-0.008-0.001-0.016-0.003-0.021c0-0.008-0.002-0.016-0.004-0.021v-0.004c-0.023-0.164-0.104-0.318-0.223-0.438
	c-0.68-0.804-1.483-1.521-2.305-2.174c-1.769-1.406-3.787-2.586-6.02-3.061c-1.29-0.273-2.586-0.287-3.881-0.054
	c-1.178,0.212-2.314,0.652-3.379,1.195c-1.666,0.851-3.185,2.022-4.51,3.337c-0.246,0.242-0.488,0.49-0.71,0.757
	c-0.298,0.353-0.298,0.767,0,1.118c0.677,0.805,1.484,1.52,2.304,2.174c1.768,1.404,3.789,2.586,6.02,3.06
	c1.29,0.272,2.587,0.284,3.881,0.054c1.182-0.212,2.316-0.649,3.378-1.191c1.667-0.854,3.187-2.022,4.513-3.338
	c0.242-0.243,0.487-0.49,0.713-0.756c0.117-0.12,0.195-0.271,0.22-0.439h0.002c0-0.008,0.002-0.014,0.004-0.02
	c0-0.007,0.001-0.014,0.001-0.02c0-0.004,0-0.01,0-0.015c0-0.008,0.002-0.019,0.002-0.026c0-0.012,0.002-0.025,0.002-0.039
	C111.793,158.998,111.792,158.986,111.792,158.971z M101.164,163.099c-2.258,0-4.089-1.829-4.089-4.087c0-2.26,1.83-4.09,4.089-4.09
	c2.257,0,4.089,1.83,4.089,4.09C105.254,161.27,103.42,163.099,101.164,163.099z"/>
<g id="Page_1_1_">
	<g id="Gear_Two_1_">
		<path id="Rectangle_5_1_" fill="#FFFFFF" d="M65.003,100.812h-2.25c-0.332,0-0.601-0.27-0.601-0.602V97.81
			c0-0.333,0.269-0.602,0.601-0.602H65c0.13-0.449,0.308-0.879,0.529-1.282l-1.587-1.587c-0.235-0.232-0.235-0.614,0-0.851
			l1.699-1.697c0.233-0.234,0.613-0.234,0.85,0l1.583,1.582c0.405-0.224,0.836-0.4,1.287-0.535v-2.236
			c0-0.333,0.269-0.602,0.601-0.602h2.402c0.332,0,0.603,0.271,0.603,0.602v2.229c0.452,0.132,0.887,0.312,1.291,0.534l1.577-1.576
			c0.234-0.233,0.615-0.233,0.851,0l1.699,1.698c0.233,0.234,0.233,0.616,0,0.851l-1.574,1.574c0.223,0.406,0.403,0.841,0.535,1.295
			h2.229c0.332,0,0.6,0.271,0.6,0.603v2.402c0,0.332-0.27,0.602-0.6,0.602h-2.23c-0.131,0.453-0.312,0.885-0.537,1.291l1.578,1.578
			c0.234,0.234,0.234,0.615,0,0.85l-1.699,1.699c-0.233,0.234-0.614,0.234-0.85,0l-1.584-1.582c-0.404,0.223-0.836,0.4-1.287,0.531
			v2.238c0,0.332-0.268,0.602-0.6,0.602h-2.404c-0.332,0-0.601-0.27-0.601-0.602v-2.244c-0.449-0.133-0.879-0.312-1.28-0.533
			l-1.59,1.588c-0.233,0.236-0.614,0.236-0.849,0l-1.699-1.697c-0.235-0.232-0.235-0.613,0-0.85l1.59-1.592
			C65.314,101.688,65.134,101.262,65.003,100.812z M67.57,99.006c0,1.99,1.613,3.604,3.604,3.604s3.605-1.613,3.605-3.604
			c0-1.989-1.613-3.604-3.605-3.604C69.183,95.401,67.57,97.017,67.57,99.006z"/>
	</g>
</g>
</svg>
