<?xml version="1.0" encoding="utf-8"?>
<!-- Generator: Adobe Illustrator 16.0.0, SVG Export Plug-In . SVG Version: 6.00 Build 0)  -->
<!DOCTYPE svg PUBLIC "-//W3C//DTD SVG 1.1//EN" "http://www.w3.org/Graphics/SVG/1.1/DTD/svg11.dtd">
<svg version="1.1" id="Layer_1" xmlns="http://www.w3.org/2000/svg" xmlns:xlink="http://www.w3.org/1999/xlink" x="0px" y="0px"
	 width="60.141px" height="60.141px" viewBox="0 0 60.141 60.141" enable-background="new 0 0 60.141 60.141" xml:space="preserve">
<circle fill="none" stroke="#DDDDDD" stroke-width="4" stroke-miterlimit="10" cx="30.07" cy="30.07" r="28.07"/>
<g>
	<path fill="#DDDDDD" d="M23.709,35.344c0.977,0.781,2.03,1.416,3.16,1.904c1.13,0.488,2.198,0.732,3.203,0.732
		c1.087,0,1.876-0.168,2.364-0.503c0.489-0.334,0.733-0.809,0.733-1.423c0-0.335-0.084-0.613-0.252-0.837
		c-0.166-0.223-0.412-0.432-0.73-0.627c-0.322-0.196-0.707-0.384-1.152-0.564c-0.447-0.182-0.962-0.384-1.549-0.608l-3.39-1.422
		c-0.726-0.279-1.423-0.649-2.093-1.108c-0.67-0.462-1.255-1.006-1.758-1.634c-0.502-0.627-0.9-1.346-1.193-2.155
		c-0.293-0.809-0.439-1.701-0.439-2.678c0-1.173,0.251-2.268,0.754-3.286s1.199-1.911,2.093-2.679
		c0.893-0.768,1.96-1.374,3.201-1.82c1.242-0.446,2.602-0.67,4.082-0.67c1.562,0,3.145,0.293,4.75,0.879s3.033,1.507,4.291,2.763
		l-3.6,4.52c-0.922-0.642-1.807-1.129-2.659-1.465c-0.851-0.335-1.776-0.502-2.782-0.502c-0.894,0-1.592,0.153-2.093,0.461
		c-0.502,0.308-0.754,0.767-0.754,1.381c0,0.642,0.356,1.137,1.067,1.486c0.711,0.349,1.697,0.76,2.952,1.234l3.307,1.297
		c1.703,0.67,3.012,1.605,3.934,2.805s1.381,2.747,1.381,4.646c0,1.144-0.236,2.246-0.711,3.306
		c-0.475,1.062-1.166,1.988-2.07,2.784c-0.908,0.795-2.018,1.43-3.328,1.904c-1.312,0.474-2.819,0.711-4.521,0.711
		c-1.731,0-3.509-0.313-5.336-0.941c-1.828-0.628-3.481-1.611-4.959-2.95L23.709,35.344z"/>
</g>
</svg>
